0000  80 00
0001  74 01
0002  9c 06
0003  80 03
0004  07 80
0005  80 02
0006  e0 66
0007  1f 00
0008  1f 80
0009  80 02
000a  74 02
000b  9c 06
000c  80 03
000d  07 80
000e  80 02
000f  e0 66
0010  1f 00
0011  1f 80
0012  89 00
0013  07 80
0014  80 00
0015  74 02
0016  47 01
0017  9c 0f
0018  80 01
0019  71 00
001a  a0 01
001b  80 00
001c  71 03
001d  a0 00
001e  80 03
001f  71 00
0020  a0 03
0021  80 02
0022  71 03
0023  a0 02
0024  05 80
0025  c0 15
0026  80 00
0027  67 01
0028  a0 04
0029  80 00
002a  47 01
002b  9c 06
002c  80 01
002d  71 00
002e  80 00
002f  71 03
0030  c0 2a
0031  80 00
0032  80 00
0033  10 02
0034  80 01
0035  18 03
0036  8f 0c
0037  80 00
0038  07 80
0039  80 02
003a  a0 00
003b  07 80
003c  a0 02
003d  80 01
003e  07 80
003f  80 03
0040  a0 01
0041  07 80
0042  a0 03
0043  10 02
0044  a0 00
0045  80 01
0046  18 03
0047  a0 01
0048  80 00
0049  74 01
004a  9f 02
004b  80 04
004c  c0 2a
004d  80 04
004e  4f 00
004f  9c 06
0050  80 03
0051  07 80
0052  80 02
0053  e0 66
0054  1f 00
0055  1f 80
0056  80 02
0057  58 00
0058  a0 02
0059  80 03
005a  50 00
005b  a0 03
005c  80 04
005d  7b 00
005e  9c f7
005f  a0 04
0060  80 03
0061  07 80
0062  80 02
0063  e0 66
0064  1f 00
0065  1f 80
0066  b0 05
0067  a0 05
0068  67 01
0069  b0 05
006a  80 05
006b  1f 00
006c  1f 80
