0000  80 00
0001  74 01
0002  9c 05
0003  80 03
0004  07 80
0005  80 02
0006  1f 00
0007  1f 80
0008  80 02
0009  74 02
000a  9c 05
000b  80 03
000c  07 80
000d  80 02
000e  1f 00
000f  1f 80
0010  89 00
0011  07 80
0012  80 00
0013  74 02
0014  47 01
0015  9c 0f
0016  80 01
0017  71 00
0018  a0 01
0019  80 00
001a  71 03
001b  a0 00
001c  80 03
001d  71 00
001e  a0 03
001f  80 02
0020  71 03
0021  a0 02
0022  05 80
0023  c0 13
0024  80 00
0025  67 01
0026  a0 04
0027  80 00
0028  47 01
0029  9c 06
002a  80 01
002b  71 00
002c  80 00
002d  71 03
002e  c0 28
002f  80 00
0030  80 00
0031  10 02
0032  80 01
0033  18 03
0034  8f 0c
0035  80 00
0036  07 80
0037  80 02
0038  a0 00
0039  07 80
003a  a0 02
003b  80 01
003c  07 80
003d  80 03
003e  a0 01
003f  07 80
0040  a0 03
0041  10 02
0042  a0 00
0043  80 01
0044  18 03
0045  a0 01
0046  80 00
0047  74 01
0048  9f 02
0049  80 04
004a  c0 28
004b  80 04
004c  4f 00
004d  9c 05
004e  80 03
004f  07 80
0050  80 02
0051  1f 00
0052  1f 80
0053  80 02
0054  58 00
0055  a0 02
0056  80 03
0057  50 00
0058  a0 03
0059  80 04
005a  7b 00
005b  9c f7
005c  a0 04
005d  80 03
005e  07 80
005f  80 02
0060  1f 00
0061  1f 80
